<svg fill="none" height="64" viewBox="0 0 64 64" width="64" xmlns="http://www.w3.org/2000/svg" xmlns:xlink="http://www.w3.org/1999/xlink"><clipPath id="a"><path d="m0 0h64v64h-64z"/></clipPath><g clip-path="url(#a)"><path d="m32 43c6.0751 0 11-4.9249 11-11s-4.9249-11-11-11-11 4.9249-11 11 4.9249 11 11 11zm15.8058-13.5h13.6993c1.3779 0 2.4949 1.1097 2.4949 2.5 0 1.3807-1.1131 2.5-2.4949 2.5h-13.6993c-.4006 2.5532-1.405 4.906-2.8625 6.9078l9.6876 9.6876c.9744.9744.9796 2.5489-.0035 3.532-.9763.9763-2.5549.9807-3.532.0035l-9.6876-9.6876c-2.0018 1.4575-4.3546 2.4619-6.9078 2.8625v13.6993c0 1.3779-1.1097 2.4949-2.5 2.4949-1.3807 0-2.5-1.1131-2.5-2.4949v-13.6993c-2.5532-.4006-4.906-1.405-6.9078-2.8625l-9.6876 9.6876c-.9744.9744-2.5489.9796-3.53202-.0035-.97631-.9763-.98063-2.5549-.00351-3.532l9.68763-9.6876c-1.4575-2.0018-2.4619-4.3546-2.8625-6.9078h-13.69935c-1.37787 0-2.49485-1.1097-2.49485-2.5 0-1.3807 1.11309-2.5 2.49485-2.5h13.69935c.4006-2.5532 1.405-4.906 2.8625-6.9078l-9.68763-9.6876c-.97437-.9744-.9796-2.5489.00351-3.53202.97632-.97631 2.55492-.98063 3.53202-.00351l9.6876 9.68763c2.0018-1.4575 4.3546-2.4619 6.9078-2.8625v-13.69935c0-1.37787 1.1097-2.49485 2.5-2.49485 1.3807 0 2.5 1.11309 2.5 2.49485v13.69935c2.5532.4006 4.906 1.405 6.9078 2.8625l9.6876-9.68763c.9744-.97437 2.5489-.9796 3.532.00351.9763.97632.9807 2.55492.0035 3.53202l-9.6876 9.6876c1.4575 2.0018 2.4619 4.3546 2.8625 6.9078z" fill="#fff"/></g></svg>