<svg fill="none" height="64" viewBox="0 0 64 64" width="64" xmlns="http://www.w3.org/2000/svg"><path d="m59.7659 38.4458c-.0347-.1268-.0941-.2455-.1747-.3493s-.1809-.1907-.2952-.2557c-.1142-.065-.2402-.1069-.3706-.1232s-.2628-.0067-.3895.0282l-6.31 1.69c-.6197.1275-1.2642.043-1.83-.24l-12.24-7.07c-.1036-.0364-.1932-.1041-.2567-.1936-.0634-.0896-.0975-.1966-.0975-.3064s.0341-.2168.0975-.3064c.0635-.0895.1531-.1572.2567-.1936l12.24-7.07c.5658-.283 1.2103-.3675 1.83-.24l6.31 1.69c.1267.0349.2591.0445.3895.0282s.2564-.0582.3706-.1232c.1143-.065.2146-.1519.2952-.2557s.14-.2225.1747-.3493l.77-2.9c.0349-.1267.0445-.2591.0282-.3895-.0163-.1305-.0582-.2564-.1232-.3706-.065-.1143-.1519-.2146-.2557-.2952s-.2225-.14-.3493-.1747l-4.9-1.31c-.2557-.0681-.4739-.2347-.607-.4633-.1331-.2287-.1701-.5008-.103-.7567l1.31-4.9c.0349-.1267.0445-.2591.0282-.3895s-.0582-.2564-.1232-.3706c-.065-.1143-.1519-.2146-.2557-.2952s-.2225-.14-.3493-.1747l-2.9-.77c-.1267-.0349-.2591-.0445-.3895-.0282-.1305.0163-.2564.0582-.3706.1232-.1143.065-.2146.1519-.2952.2557s-.14.2225-.1747.3493l-1.69 6.32c-.1961.6001-.5912 1.1152-1.12 1.46l-12.24 7.07c-.48.27-.87 0-.87-.5v-14.13c.0351-.6342.2856-1.2374.71-1.71l4.62-4.62c.0937-.09296.1681-.20356.2189-.32542s.0769-.25257.0769-.38458-.0261-.26272-.0769-.38458-.1252-.23246-.2189-.32542l-2.12-2.12c-.093-.09373-.2036-.16812-.3254-.21889-.1219-.05077-.2526-.07691-.3846-.07691s-.2627.02614-.3846.07691c-.1218.05077-.2324.12516-.3254.21889l-3.58 3.59c-.093.09373-.2036.16812-.3254.21889-.1219.05077-.2526.07691-.3846.07691s-.2627-.02614-.3846-.07691c-.1218-.05077-.2324-.12516-.3254-.21889l-3.58-3.59c-.093-.09373-.2036-.16812-.3254-.21889-.1219-.05077-.2526-.07691-.3846-.07691s-.2627.02614-.3846.07691c-.1218.05077-.2324.12516-.3254.21889l-2.12 2.12c-.0937.09296-.1681.20356-.2189.32542s-.0769.25257-.0769.38458.0261.26272.0769.38458.1252.23246.2189.32542l4.62 4.62c.4244.4726.6749 1.0758.71 1.71v14.13c0 .55-.39.77-.87.5l-12.24-7.07c-.5288-.3448-.924-.8599-1.12-1.46l-1.69-6.32c-.0347-.1268-.0941-.2455-.1747-.3493s-.1809-.1907-.2952-.2557c-.1142-.065-.2402-.1069-.3706-.1232s-.2628-.0067-.3895.0282l-2.90001.77c-.12677.0347-.24546.0941-.34928.1747-.10381.0806-.19071.1809-.25572.2952-.06502.1142-.10687.2402-.12317.3706s-.00673.2628.02817.3895l1.31001 4.9c.0671.2559.0301.528-.103.7567-.1331.2286-.35135.3952-.60701.4633l-4.9 1.31c-.12678.0347-.24546.0941-.34928.1747-.10381.0806-.19071.1809-.25572.2952-.06502.1142-.10687.2401-.12317.3706-.0163.1304-.00673.2628.02817.3895l.77 2.9c.03472.1268.09408.2455.17471.3493s.18093.1907.29517.2557.24017.1069.3706.1232.26279.0067.38952-.0282l6.31001-1.69c.6196-.1275 1.2642-.043 1.83.24l12.24 7.07c.1035.0364.1932.1041.2567.1936.0634.0896.0975.1966.0975.3064s-.0341.2168-.0975.3064c-.0635.0895-.1532.1572-.2567.1936l-12.24 7.07c-.5658.283-1.2104.3675-1.83.24l-6.31001-1.69c-.12673-.0349-.25909-.0445-.38952-.0282s-.25636.0582-.3706.1232-.21454.1519-.29517.2557-.13999.2225-.17471.3493l-.77 2.9c-.0349.1267-.04447.2591-.02817.3895.0163.1305.05815.2564.12317.3706.06501.1143.15191.2146.25572.2952.10382.0806.2225.14.34928.1747l4.9 1.31c.25566.0681.47391.2347.60701.4633.1331.2287.1701.5008.103.7567l-1.31001 4.9c-.0349.1267-.04447.2591-.02817.3895s.05815.2564.12317.3706c.06501.1143.15191.2146.25572.2952.10382.0806.22251.14.34928.1747l2.90001.77c.1267.0349.2591.0445.3895.0282s.2564-.0582.3706-.1232c.1143-.065.2146-.1519.2952-.2557s.14-.2225.1747-.3493l1.69-6.32c.196-.6001.5912-1.1152 1.12-1.46l12.24-7.07c.48-.27.87 0 .87.5v14.13c-.0351.6342-.2856 1.2374-.71 1.71l-4.62 4.62c-.0937.093-.1681.2036-.2189.3254-.0508.1219-.0769.2526-.0769.3846s.0261.2627.0769.3846c.0508.1218.1252.2324.2189.3254l2.12 2.12c.093.0937.2036.1681.3254.2189.1219.0508.2526.0769.3846.0769s.2627-.0261.3846-.0769c.1218-.0508.2324-.1252.3254-.2189l3.58-3.59c.093-.0937.2036-.1681.3254-.2189.1219-.0508.2526-.0769.3846-.0769s.2627.0261.3846.0769c.1218.0508.2324.1252.3254.2189l3.58 3.59c.093.0937.2036.1681.3254.2189.1219.0508.2526.0769.3846.0769s.2627-.0261.3846-.0769c.1218-.0508.2324-.1252.3254-.2189l2.12-2.12c.0937-.093.1681-.2036.2189-.3254.0508-.1219.0769-.2526.0769-.3846s-.0261-.2627-.0769-.3846c-.0508-.1218-.1252-.2324-.2189-.3254l-4.62-4.62c-.4244-.4726-.6749-1.0758-.71-1.71v-14.13c0-.55.39-.77.87-.5l12.24 7.07c.5288.3448.9239.8599 1.12 1.46l1.69 6.32c.0347.1268.0941.2455.1747.3493s.1809.1907.2952.2557c.1142.065.2401.1069.3706.1232.1304.0163.2628.0067.3895-.0282l2.9-.77c.1268-.0347.2455-.0941.3493-.1747s.1907-.1809.2557-.2952c.065-.1142.1069-.2402.1232-.3706s.0067-.2628-.0282-.3895l-1.31-4.9c-.0671-.2559-.0301-.528.103-.7567.1331-.2286.3513-.3952.607-.4633l4.9-1.26c.1268-.0347.2455-.0941.3493-.1747s.1907-.1809.2557-.2952c.065-.1142.1069-.2402.1232-.3706s.0067-.2628-.0282-.3895z" fill="#fff"/></svg>